<?xml version="1.0" encoding="UTF-8"?>
<svg width="512" height="512" viewBox="0 0 512 512" xmlns="http://www.w3.org/2000/svg">
  <rect x="32" y="32" width="448" height="448" rx="110" fill="#0B1B2B"/>
  <path d="M 180.22 384.08 L 177.60 381.53 L 174.99 378.80 L 172.37 375.91 L 169.76 372.84 L 167.17 369.61 L 164.59 366.22 L 162.04 362.67 L 159.52 358.96 L 157.04 355.10 L 154.60 351.09 L 152.20 346.94 L 149.86 342.65 L 147.57 338.23 L 145.35 333.68 L 143.20 329.01 L 141.12 324.22 L 139.12 319.33 L 137.21 314.34 L 135.38 309.26 L 133.65 304.10 L 132.02 298.86 L 130.50 293.55 L 129.08 288.19 L 127.77 282.78 L 126.58 277.32 L 125.52 271.84 L 124.57 266.34 L 123.75 260.83 L 123.06 255.32 L 122.50 249.81 L 122.08 244.33 L 121.79 238.87 L 121.65 233.46 L 121.64 228.09 L 121.78 222.78 L 122.06 217.55 L 122.48 212.39 L 123.04 207.32 L 123.76 202.35 L 124.61 197.49 L 125.61 192.74 L 126.75 188.12 L 128.04 183.64 L 129.46 179.30 L 131.02 175.11 L 132.72 171.09 L 134.56 167.23 L 136.52 163.55 L 138.62 160.06 L 140.84 156.75 L 143.18 153.64 L 145.65 150.73 L 148.22 148.03 L 150.91 145.54 L 153.71 143.28 L 156.60 141.23 L 159.60 139.41 L 162.68 137.82 L 165.85 136.46 L 169.11 135.34 L 172.43 134.45 L 175.83 133.81 L 179.29 133.40 L 182.81 133.23 L 186.38 133.31 L 190.00 133.62 L 193.65 134.17 L 197.34 134.96 L 201.06 135.98 L 204.79 137.23 L 208.54 138.72 L 212.29 140.43 L 216.04 142.36 L 219.79 144.51 L 223.52 146.87 L 227.24 149.44 L 230.93 152.22 L 234.58 155.19 L 238.20 158.35 L 241.78 161.69 L 245.30 165.21 L 248.77 168.89 L 252.17 172.74 L 255.51 176.74 L 258.78 180.89 L 261.97 185.17 L 265.08 189.57 L 268.10 194.10 L 271.03 198.73 L 273.86 203.47 L 276.60 208.29 L 279.23 213.20 L 281.75 218.17 L 284.16 223.21 L 286.46 228.30 L 288.64 233.42 L 290.71 238.59 L 292.65 243.77 L 294.48 248.96 L 296.18 254.16 L 297.75 259.35 L 299.20 264.52 L 300.52 269.67 L 301.71 274.78 L 302.78 279.85 L 303.72 284.87 L 304.54 289.82 L 305.22 294.71 L 305.79 299.52 L 306.23 304.24 L 306.55 308.87 L 306.75 313.41 L 306.83 317.84 L 306.80 322.15 L 306.65 326.35 L 306.40 330.42 L 306.03 334.37 L 305.57 338.18 L 305.00 341.85 L 304.34 345.39 L 303.59 348.77 L 302.75 352.01 L 301.82 355.10 L 300.82 358.03 L 299.74 360.81 L 298.58 363.43 L 297.37 365.89 L 296.09 368.20 L 294.75 370.34 L 293.36 372.33 L 291.93 374.17 L 290.45 375.84 L 288.94 377.37 L 287.39 378.74 L 285.82 379.96 L 284.22 381.03 L 282.61 381.96 L 280.98 382.75 L 279.35 383.40 L 277.72 383.92 L 276.08 384.32 L 274.45 384.59 L 272.83 384.74 L 271.23 384.78 L 269.64 384.71 L 268.08 384.54 L 266.55 384.28 L 265.04 383.93 L 263.56 383.49 L 262.13 382.98 L 260.73 382.40 L 259.37 381.75 L 258.06 381.05 L 256.80 380.30 L 255.58 379.51 L 254.42 378.68 L 253.30 377.82 L 252.25 376.94 L 251.24 376.05 L 250.30 375.14 L 249.41 374.24 L 248.58 373.33 L 247.80 372.44 L 247.08 371.57 L 246.42 370.71 L 245.82 369.89 L 245.27 369.10 L 244.78 368.34 L 244.34 367.63 L 243.95 366.97 L 243.61 366.37 L 243.32 365.82 L 243.08 365.33 L 242.88 364.91 L 242.72 364.55 L 242.61 364.27 L 242.52 364.06 L 242.47 363.92 L 242.45 363.86 L 242.46 363.88 L 242.49 363.98 L 242.54 364.16 L 242.60 364.42 L 242.68 364.76 L 242.76 365.18 L 242.85 365.68 L 242.94 366.26 L 243.03 366.91 L 243.11 367.63 L 243.18 368.43 L 243.23 369.30 L 243.26 370.23 L 243.27 371.22 L 243.25 372.27 L 243.20 373.38 L 243.12 374.53 L 243.00 375.73 L 242.83 376.97 L 242.62 378.24 L 242.37 379.54 L 242.05 380.87 L 241.69 382.21 L 241.26 383.56 L 240.78 384.92 L 240.23 386.27 L 239.61 387.61 L 238.93 388.94 L 238.18 390.25 L 237.35 391.53 L 236.45 392.77 L 235.48 393.96 L 234.43 395.11 L 233.30 396.19 L 232.10 397.22 L 230.81 398.16 L 229.45 399.04 L 228.02 399.82 L 226.50 400.51 L 224.91 401.10 L 223.24 401.59 L 221.50 401.96 L 219.69 402.22 L 217.80 402.35 L 215.84 402.36 L 213.82 402.23 L 211.73 401.96 L 209.58 401.54 L 207.37 400.98 L 205.11 400.26 L 202.79 399.39 L 200.42 398.36 L 198.01 397.16 L 195.55 395.80 L 193.06 394.28 L 190.54 392.58 L 187.99 390.71 L 185.42 388.67 L 182.82 386.46 L 180.22 384.08 Z" fill="#0A5DB8"/>
  <path d="M 210.17 337.10 L 209.18 333.58 L 208.28 329.91 L 207.46 326.10 L 206.73 322.14 L 206.10 318.05 L 205.57 313.82 L 205.13 309.47 L 204.81 305.00 L 204.58 300.42 L 204.47 295.72 L 204.47 290.93 L 204.59 286.04 L 204.82 281.07 L 205.17 276.02 L 205.64 270.89 L 206.24 265.71 L 206.95 260.48 L 207.79 255.20 L 208.75 249.89 L 209.83 244.55 L 211.04 239.20 L 212.37 233.84 L 213.83 228.49 L 215.40 223.15 L 217.10 217.83 L 218.91 212.55 L 220.84 207.31 L 222.89 202.13 L 225.05 197.01 L 227.32 191.97 L 229.69 187.00 L 232.17 182.14 L 234.75 177.37 L 237.43 172.72 L 240.20 168.19 L 243.06 163.80 L 246.01 159.54 L 249.03 155.44 L 252.14 151.49 L 255.31 147.70 L 258.55 144.09 L 261.84 140.66 L 265.20 137.42 L 268.60 134.38 L 272.05 131.53 L 275.53 128.90 L 279.05 126.48 L 282.59 124.27 L 286.15 122.29 L 289.73 120.54 L 293.32 119.02 L 296.90 117.73 L 300.49 116.68 L 304.06 115.87 L 307.61 115.30 L 311.14 114.98 L 314.64 114.90 L 318.11 115.07 L 321.54 115.48 L 324.91 116.13 L 328.24 117.03 L 331.50 118.17 L 334.71 119.54 L 337.84 121.16 L 340.89 123.01 L 343.87 125.09 L 346.76 127.39 L 349.56 129.92 L 352.26 132.66 L 354.87 135.61 L 357.37 138.77 L 359.77 142.13 L 362.05 145.68 L 364.22 149.41 L 366.27 153.33 L 368.21 157.41 L 370.01 161.66 L 371.70 166.06 L 373.25 170.60 L 374.67 175.28 L 375.97 180.09 L 377.13 185.02 L 378.15 190.06 L 379.05 195.19 L 379.80 200.41 L 380.43 205.71 L 380.91 211.09 L 381.27 216.52 L 381.49 221.99 L 381.57 227.51 L 381.53 233.05 L 381.35 238.62 L 381.05 244.19 L 380.62 249.75 L 380.07 255.31 L 379.40 260.84 L 378.60 266.35 L 377.70 271.81 L 376.68 277.22 L 375.55 282.56 L 374.32 287.85 L 372.99 293.05 L 371.56 298.17 L 370.04 303.19 L 368.43 308.12 L 366.73 312.93 L 364.96 317.63 L 363.11 322.21 L 361.20 326.65 L 359.22 330.96 L 357.18 335.14 L 355.08 339.16 L 352.94 343.04 L 350.75 346.76 L 348.53 350.32 L 346.27 353.72 L 343.98 356.96 L 341.68 360.03 L 339.35 362.93 L 337.01 365.65 L 334.67 368.21 L 332.32 370.59 L 329.97 372.80 L 327.63 374.84 L 325.31 376.71 L 323.00 378.40 L 320.72 379.92 L 318.45 381.28 L 316.22 382.47 L 314.03 383.50 L 311.87 384.37 L 309.75 385.08 L 307.68 385.65 L 305.65 386.06 L 303.68 386.33 L 301.76 386.46 L 299.90 386.46 L 298.10 386.33 L 296.36 386.08 L 294.68 385.71 L 293.07 385.24 L 291.52 384.66 L 290.05 383.98 L 288.64 383.21 L 287.30 382.36 L 286.03 381.43 L 284.83 380.44 L 283.70 379.38 L 282.64 378.26 L 281.65 377.10 L 280.73 375.90 L 279.88 374.66 L 279.10 373.40 L 278.38 372.12 L 277.72 370.82 L 277.13 369.52 L 276.59 368.23 L 276.12 366.93 L 275.70 365.66 L 275.33 364.40 L 275.01 363.17 L 274.74 361.97 L 274.52 360.81 L 274.33 359.70 L 274.19 358.63 L 274.08 357.61 L 274.00 356.65 L 273.95 355.75 L 273.92 354.92 L 273.92 354.15 L 273.93 353.46 L 273.95 352.84 L 273.98 352.30 L 274.02 351.83 L 274.06 351.44 L 274.10 351.14 L 274.14 350.91 L 274.16 350.77 L 274.17 350.71 L 274.17 350.73 L 274.14 350.83 L 274.10 351.01 L 274.02 351.27 L 273.92 351.60 L 273.78 352.01 L 273.61 352.48 L 273.40 353.03 L 273.15 353.63 L 272.86 354.30 L 272.52 355.03 L 272.13 355.80 L 271.69 356.63 L 271.20 357.49 L 270.66 358.39 L 270.07 359.32 L 269.42 360.28 L 268.71 361.26 L 267.95 362.25 L 267.13 363.25 L 266.26 364.25 L 265.33 365.24 L 264.34 366.22 L 263.30 367.17 L 262.20 368.11 L 261.04 369.00 L 259.84 369.86 L 258.58 370.67 L 257.28 371.42 L 255.92 372.12 L 254.52 372.74 L 253.08 373.29 L 251.60 373.76 L 250.08 374.13 L 248.53 374.42 L 246.94 374.60 L 245.33 374.67 L 243.69 374.63 L 242.04 374.47 L 240.36 374.19 L 238.67 373.78 L 236.98 373.23 L 235.28 372.55 L 233.58 371.72 L 231.88 370.74 L 230.19 369.62 L 228.52 368.34 L 226.87 366.90 L 225.23 365.31 L 223.63 363.56 L 222.06 361.65 L 220.52 359.57 L 219.03 357.33 L 217.59 354.92 L 216.19 352.35 L 214.86 349.62 L 213.58 346.73 L 212.37 343.68 L 211.23 340.47 L 210.17 337.10 Z" fill="#1BB6A8"/>
</svg>
