<?xml version="1.0" encoding="UTF-8"?>
<svg xmlns="http://www.w3.org/2000/svg" width="280" height="80" viewBox="0 0 280 80">
  <defs>
    <g id="mark-dark" transform="scale(0.11) translate(32,32)">
      <rect width="448" height="448" rx="110" fill="#0B1B2B"/>
      <path fill="#F7FAFC" d="M180.22 384.08L177.6 381.53 174.99 378.8 172.37 375.91 169.76 372.84 167.17 369.61 164.59 366.22 162.04 362.67 159.52 358.96 157.04 355.1 154.6 351.09 152.2 346.94 149.86 342.65 147.57 338.23 145.35 333.68 143.2 329.01 141.12 324.22 139.12 319.33 137.21 314.34 135.38 309.26 133.65 304.1 132.02 298.86 130.5 293.55 129.08 288.19 127.77 282.78 126.58 277.32 125.52 271.84 124.57 266.34 123.75 260.83 123.06 255.32 122.5 249.81 122.08 244.33 121.79 238.87 121.65 233.46 121.64 228.09 121.78 222.78 122.06 217.55 122.48 212.39 123.04 207.32 123.76 202.35 124.61 197.49 125.61 192.74 126.75 188.12 128.04 183.64 129.46 179.3 131.02 175.11 132.72 171.09 134.56 167.23 136.52 163.55 138.62 160.06 140.84 156.75 143.18 153.64 145.65 150.73 148.22 148.03 150.91 145.54 153.71 143.28 156.6 141.23 159.6 139.41 162.68 137.82 165.85 136.46 169.11 135.34 172.43 134.45 175.83 133.81 179.29 133.4 182.81 133.23 186.38 133.31 190 133.62 193.65 134.17 197.34 134.96 201.06 135.98 204.79 137.23 208.54 138.72 212.29 140.43 216.04 142.36 219.79 144.51 223.52 146.87 227.24 149.44 230.93 152.22 234.58 155.19 238.2 158.35 241.78 161.69 245.3 165.21 248.77 168.89 252.17 172.74 255.51 176.74 258.78 180.89 261.97 185.17 265.08 189.57 268.1 194.1 271.03 198.73 273.86 203.47 276.6 208.29 279.23 213.2 281.75 218.17 284.16 223.21 286.46 228.3 288.64 233.42 290.71 238.59 292.65 243.77 294.48 248.96 296.18 254.16 297.75 259.35 299.2 264.52 300.52 269.67 301.71 274.78 302.78 279.85 303.72 284.87 304.54 289.82 305.22 294.71 305.79 299.52 306.23 304.24 306.55 308.87 306.75 313.41 306.83 317.84 306.8 322.15 306.65 326.35 306.4 330.42 306.03 334.37 305.57 338.18 305 341.85 304.34 345.39 303.59 348.77 302.75 352.01 301.82 355.1 300.82 358.03 299.74 360.81 298.58 363.43 297.37 365.89 296.09 368.2 294.75 370.34 293.36 372.33 291.93 374.17 290.45 375.84 288.94 377.37 287.39 378.74 285.82 379.96 284.22 381.03 282.61 381.96 280.98 382.75 279.35 383.4 277.72 383.92 276.08 384.32 274.45 384.59 272.83 384.74 271.23 384.78 269.64 384.71 268.08 384.54 266.55 384.28 265.04 383.93 263.56 383.49 262.13 382.98 260.73 382.4 259.37 381.75 258.06 381.05 256.8 380.3 255.58 379.51 254.42 378.68 253.3 377.82 252.25 376.94 251.24 376.05 250.3 375.14 249.41 374.24 248.58 373.33 247.8 372.44 247.08 371.57 246.42 370.71 245.82 369.89 245.27 369.1 244.78 368.34 244.34 367.63 243.95 366.97 243.61 366.37 243.32 365.82 243.08 365.33 242.88 364.91 242.72 364.55 242.61 364.27 242.52 364.06 242.47 363.92 242.45 363.86 242.46 363.88 242.49 363.98 242.54 364.16 242.6 364.42 242.68 364.76 242.76 365.18 242.85 365.68 242.94 366.26 243.03 366.91 243.11 367.63 243.18 368.43 243.23 369.3 243.26 370.23 243.27 371.22 243.25 372.27 243.2 373.38 243.12 374.53 243 375.73 242.83 376.97 242.62 378.24 242.37 379.54 242.05 380.87 241.69 382.21 241.26 383.56 240.78 384.92 240.23 386.27 239.61 387.61 238.93 388.94 238.18 390.25 237.35 391.53 236.45 392.77 235.48 393.96 234.43 395.11 233.3 396.19 232.1 397.22 230.81 398.16 229.45 399.04 228.02 399.82 226.5 400.51 224.91 401.1 223.24 401.59 221.5 401.96 219.69 402.22 217.8 402.35 215.84 402.36 213.82 402.23 211.73 401.96 209.58 401.54 207.37 400.98 205.11 400.26 202.79 399.39 200.42 398.36 198.01 397.16 195.55 395.8 193.06 394.28 190.54 392.58 187.99 390.71 185.42 388.67 182.82 386.46 180.22 384.08z"/>
      <path fill="#1BB6A8" d="M210.17 337.1L209.18 333.58 208.28 329.91 207.46 326.1 206.73 322.14 206.1 318.05 205.57 313.82 205.13 309.47 204.81 305 204.58 300.42 204.47 295.72 204.47 290.93 204.59 286.04 204.82 281.07 205.17 276.02 205.64 270.89 206.24 265.71 206.95 260.48 207.79 255.2 208.75 249.89 209.83 244.55 211.04 239.2 212.37 233.84 213.83 228.49 215.4 223.15 217.1 217.83 218.91 212.55 220.84 207.31 222.89 202.13 225.05 197.01 227.32 191.97 229.69 187 232.17 182.14 234.75 177.37 237.43 172.72 240.2 168.19 243.06 163.8 246.01 159.54 249.03 155.44 252.14 151.49 255.31 147.7 258.55 144.09 261.84 140.66 265.2 137.42 268.6 134.38 272.05 131.53 275.53 128.9 279.05 126.48 282.59 124.27 286.15 122.29 289.73 120.54 293.32 119.02 296.9 117.73 300.49 116.68 304.06 115.87 307.61 115.3 311.14 114.98 314.64 114.9 318.11 115.07 321.54 115.48 324.91 116.13 328.24 117.03 331.5 118.17 334.71 119.54 337.84 121.16 340.89 123.01 343.87 125.09 346.76 127.39 349.56 129.92 352.26 132.66 354.87 135.61 357.37 138.77 359.77 142.13 362.05 145.68 364.22 149.41 366.27 153.33 368.21 157.41 370.01 161.66 371.7 166.06 373.25 170.6 374.67 175.28 375.97 180.09 377.13 185.02 378.15 190.06 379.05 195.19 379.8 200.41 380.43 205.71 380.91 211.09 381.27 216.52 381.49 221.99 381.57 227.51 381.53 233.05 381.35 238.62 381.05 244.19 380.62 249.75 380.07 255.31 379.4 260.84 378.6 266.35 377.7 271.81 376.68 277.22 375.55 282.56 374.32 287.85 372.99 293.05 371.56 298.17 370.04 303.19 368.43 308.12 366.73 312.93 364.96 317.63 363.11 322.21 361.2 326.65 359.22 330.96 357.18 335.14 355.08 339.16 352.94 343.04 350.75 346.76 348.53 350.32 346.27 353.72 343.98 356.96 341.68 360.03 339.35 362.93 337.01 365.65 334.67 368.21 332.32 370.59 329.97 372.8 327.63 374.84 325.31 376.71 323 378.4 320.72 379.92 318.45 381.28 316.22 382.47 314.03 383.5 311.87 384.37 309.75 385.08 307.68 385.65 305.65 386.06 303.68 386.33 301.76 386.46 299.9 386.46 298.1 386.33 296.36 386.08 294.68 385.71 293.07 385.24 291.52 384.66 290.05 383.98 288.64 383.21 287.3 382.36 286.03 381.43 284.83 380.44 283.7 379.38 282.64 378.26 281.65 377.1 280.73 375.9 279.88 374.66 279.1 373.4 278.38 372.12 277.72 370.82 277.13 369.52 276.59 368.23 276.12 366.93 275.7 365.66 275.33 364.4 275.01 363.17 274.74 361.97 274.52 360.81 274.33 359.7 274.19 358.63 274.08 357.61 274 356.65 273.95 355.75 273.92 354.92 273.92 354.15 273.93 353.46 273.95 352.84 273.98 352.3 274.02 351.83 274.06 351.44 274.1 351.14 274.14 350.91 274.16 350.77 274.17 350.71 274.17 350.73 274.14 350.83 274.1 351.01 274.02 351.27 273.92 351.6 273.78 352.01 273.61 352.48 273.4 353.03 273.15 353.63 272.86 354.3 272.52 355.03 272.13 355.8 271.69 356.63 271.2 357.49 270.66 358.39 270.07 359.32 269.42 360.28 268.71 361.26 267.95 362.25 267.13 363.25 266.26 364.25 265.33 365.24 264.34 366.22 263.3 367.17 262.2 368.11 261.04 369 259.84 369.86 258.58 370.67 257.28 371.42 255.92 372.12 254.52 372.74 253.08 373.29 251.6 373.76 250.08 374.13 248.53 374.42 246.94 374.6 245.33 374.67 243.69 374.63 242.04 374.47 240.36 374.19 238.67 373.78 236.98 373.23 235.28 372.55 233.58 371.72 231.88 370.74 230.19 369.62 228.52 368.34 226.87 366.9 225.23 365.31 223.63 363.56 222.06 361.65 220.52 359.57 219.03 357.33 217.59 354.92 216.19 352.35 214.86 349.62 213.58 346.73 212.37 343.68 211.23 340.47 210.17 337.1z"/>
    </g>
  </defs>
  <use href="#mark-dark" x="0" y="0"/>
  <text x="56" y="52" font-family="Inter, system-ui, -apple-system, sans-serif" font-size="28" font-weight="700" fill="#F7FAFC">nume</text>
  <text x="126" y="52" font-family="Inter, system-ui, -apple-system, sans-serif" font-size="28" font-weight="400" fill="#F7FAFC">health</text>
</svg>
